# xmcd
#
# Track frame offsets:
#	150
#	28594
#	35180
#	54003
#	70086
#	78428
#	90459
#	106262
#	110935
#	114714
#	128276
#	141065
#	143891
#
# Disc length: 2256 seconds
#
# Revision: 1
# Processed by: cddbd v1.5.2PL0 Copyright (c) Steve Scherf et al.
# Submitted via: audiograbber 1.83.01
#
DISCID=ac08ce0d
DTITLE=Edouard Castonguay - Huit
DYEAR=2006
DGENRE=Country
TTITLE0=Au coeur de ma vie
TTITLE1=Le huit mars
TTITLE2=Simple chevalier
TTITLE3=La rigolade
TTITLE4=Hommage par Roger Miron
TTITLE5=Bonne nuit ma chérie
TTITLE6=Si c'était à refaire
TTITLE7=Minute de silence
TTITLE8=Hommage par Jeff Smallwood
TTITLE9=Mon chapeau blanc
TTITLE10=Sur mon grand étalon blanc
TTITLE11=Hommage par Brian Fullen
TTITLE12=Si un enfant savait
EXTD=
EXTT0=
EXTT1=
EXTT2=
EXTT3=
EXTT4=
EXTT5=
EXTT6=
EXTT7=
EXTT8=
EXTT9=
EXTT10=
EXTT11=
EXTT12=
PLAYORDER=
